#!OML:ASF E:\motion texture\Top Level 1\Subject 1\Session 1\male.ASF
:FULLY-SPECIFIED
:DEGREES
461
root -16.3743 17.9582 0.829767 777.959 -87.9382 -770.728
lowerback -1.73046 -3.69678 1.04397
upperback -1.45965 -4.98735 3.24851
thorax -0.328671 -2.51235 2.67121
lowerneck -13.5356 -10.2089 -12.7103
upperneck 12.9668 -12.8208 8.79985
head 7.60293 -6.08873 3.43296
rclavicle -2.55935e-014 2.54444e-014
rhumerus -25.9284 0.933128 -85.9092
rradius 34.7595
rwrist 10.0369
rhand -14.8456 -22.3653
rfingers 7.12502
rthumb 11.3136 -412.04
lclavicle -2.55935e-014 2.54444e-014
lhumerus -17.9483 -12.0191 86.4886
lradius 50.6985
lwrist -13.4024
lhand -16.9773 21.7053
lfingers 7.12502
lthumb 9.25729 51.4821
rfemur -27.2211 3.37918 21.8605
rtibia 18.2314
rfoot -0.781335 -13.2179
rtoes 14.8284
lfemur -3.04363 -2.84104 -17.5528
ltibia 32.502
lfoot -4.46821 -6.00505
ltoes -18.3431
462
root -16.5323 17.967 0.808097 780.686 -87.6879 -773.489
lowerback -1.74534 -3.64031 1.30568
upperback -1.44351 -4.91886 3.32641
thorax -0.321542 -2.48075 2.60581
lowerneck -13.5235 -10.2475 -12.7554
upperneck 12.9434 -12.8665 8.81342
head 7.60229 -6.11171 3.43823
rclavicle -9.93923e-016 1.59028e-015
rhumerus -26.0655 0.960722 -85.9098
rradius 34.7478
rwrist 10.0341
rhand -14.8021 -22.3471
rfingers 7.12502
rthumb 11.3556 -412.02
lclavicle -9.93923e-016 1.59028e-015
lhumerus -18.556 -12.2619 86.8728
lradius 50.9499
lwrist -13.5875
lhand -17.068 21.5884
lfingers 7.12502
lthumb 9.1697 51.369
rfemur -26.7178 3.44791 22.3492
rtibia 18.3761
rfoot -0.807699 -12.9159
rtoes 15.5094
lfemur -3.60471 -2.70811 -17.0723
ltibia 33.8597
lfoot -3.49234 -6.10383
ltoes -18.4598
463
root -16.6907 17.9761 0.786219 783.06 -87.4308 -775.904
lowerback -1.76024 -3.57923 1.57254
upperback -1.42437 -4.84468 3.40374
thorax -0.311586 -2.44632 2.53695
lowerneck -13.5082 -10.2858 -12.7996
upperneck 12.9227 -12.9124 8.82539
head 7.60183 -6.13493 3.44293
rclavicle -6.98231e-014 4.6118e-014
rhumerus -26.2084 0.981195 -85.8998
rradius 34.7356
rwrist 10.0272
rhand -14.7601 -22.3429
rfingers 7.12502
rthumb 11.3961 -412.013
lclavicle -6.98231e-014 4.6118e-014
lhumerus -19.1799 -12.4679 87.262
lradius 51.1289
lwrist -13.7994
lhand -17.1654 21.4786
lfingers 7.12502
lthumb 9.0757 51.2633
rfemur -26.1826 3.51716 22.8448
rtibia 18.4927
rfoot -0.851586 -12.6212
rtoes 16.1815
lfemur -4.20856 -2.56423 -16.5835
ltibia 35.2474
lfoot -2.51185 -6.16771
ltoes -18.5397
464
root -16.8492 17.9854 0.76414 785.158 -87.1664 -778.048
lowerback -1.77563 -3.51411 1.84496
upperback -1.4029 -4.76559 3.48026
thorax -0.299154 -2.40946 2.46415
lowerneck -13.4881 -10.3232 -12.8425
upperneck 12.9039 -12.958 8.83675
head 7.60106 -6.15817 3.44746
rclavicle -5.55603e-014 2.94201e-014
rhumerus -26.3574 0.995755 -85.881
rradius 34.7267
rwrist 10.0182
rhand -14.7146 -22.3611
rfingers 7.12502
rthumb 11.4401 -412.029
lclavicle -5.55603e-014 2.94201e-014
lhumerus -19.8194 -12.6332 87.6524
lradius 51.2379
lwrist -14.0326
lhand -17.2654 21.3803
lfingers 7.12502
lthumb 8.97926 51.1692
rfemur -25.6164 3.58918 23.3469
rtibia 18.5767
rfoot -0.918757 -12.3381
rtoes 16.8473
lfemur -4.85437 -2.40999 -16.0863
ltibia 36.6586
lfoot -1.53803 -6.19683
ltoes -18.5719
465
root -17.0079 17.9947 0.741933 787.055 -86.8983 -779.996
lowerback -1.79138 -3.44452 2.12042
upperback -1.37866 -4.68098 3.55531
thorax -0.283678 -2.36983 2.38814
lowerneck -13.4655 -10.3597 -12.8849
upperneck 12.8888 -13.0032 8.8475
head 7.60093 -6.18135 3.45182
rclavicle 5.86912e-014 -3.02153e-014
rhumerus -26.5115 1.00625 -85.8539
rradius 34.7249
rwrist 10.0059
rhand -14.6707 -22.3911
rfingers 7.12502
rthumb 11.4824 -412.057
lclavicle 5.86912e-014 -3.02153e-014
lhumerus -20.4703 -12.7544 88.0417
lradius 51.2762
lwrist -14.2776
lhand -17.3674 21.2942
lfingers 7.12502
lthumb 8.88079 51.0873
rfemur -25.0199 3.66268 23.8529
rtibia 18.6263
rfoot -1.01178 -12.0653
rtoes 17.4791
lfemur -5.53911 -2.24444 -15.5852
ltibia 38.086
lfoot -0.584831 -6.1928
ltoes -18.568
466
root -17.1666 18.004 0.719658 788.794 -86.6272 -781.791
lowerback -1.80725 -3.37077 2.3988
upperback -1.35262 -4.59125 3.62825
thorax -0.266246 -2.32759 2.30837
lowerneck -13.4396 -10.3953 -12.9247
upperneck 12.8768 -13.0479 8.85646
head 7.60094 -6.20448 3.45538
rclavicle -4.80065e-014 4.21423e-014
rhumerus -26.6709 1.01569 -85.8207
rradius 34.7333
rwrist 9.98993
rhand -14.6281 -22.4331
rfingers 7.12502
rthumb 11.5235 -412.096
lclavicle -4.80065e-014 4.21423e-014
lhumerus -21.1322 -12.8294 88.426
lradius 51.2468
lwrist -14.5245
lhand -17.4696 21.2276
lfingers 7.12502
lthumb 8.78224 51.0249
rfemur -24.3964 3.73487 24.3625
rtibia 18.6433
rfoot -1.13432 -11.8018
rtoes 18.0649
lfemur -6.26178 -2.06816 -15.0824
ltibia 39.5227
lfoot 0.330811 -6.15866
ltoes -18.5418
467
root -17.3252 18.0132 0.697343 790.415 -86.3548 -783.471
lowerback -1.82383 -3.29271 2.67845
upperback -1.32451 -4.49619 3.69858
thorax -0.246084 -2.28262 2.22523
lowerneck -13.411 -10.4295 -12.9627
upperneck 12.8685 -13.0919 8.86472
head 7.6015 -6.22732 3.4586
rclavicle 1.03865e-014 -2.8625e-014
rhumerus -26.8342 1.02587 -85.7826
rradius 34.7558
rwrist 9.97089
rhand -14.5867 -22.4872
rfingers 7.12502
rthumb 11.5634 -412.148
lclavicle 1.03865e-014 -2.8625e-014
lhumerus -21.8013 -12.8555 88.8016
lradius 51.1517
lwrist -14.7655
lhand -17.5705 21.1773
lfingers 7.12502
lthumb 8.68479 50.9787
rfemur -23.7487 3.80511 24.8744
rtibia 18.6277
rfoot -1.28373 -11.5479
rtoes 18.6065
lfemur -7.0206 -1.8807 -14.5801
ltibia 40.9618
lfoot 1.19987 -6.09692
ltoes -18.482
468
root -17.4836 18.0223 0.675058 791.95 -86.0824 -785.069
lowerback -1.8405 -3.21058 2.95916
upperback -1.295 -4.39605 3.76553
thorax -0.224188 -2.23502 2.13809
lowerneck -13.3803 -10.4621 -12.999
upperneck 12.8647 -13.1348 8.87327
head 7.60292 -6.24961 3.46189
rclavicle 2.08724e-014 -2.46493e-014
rhumerus -27.0017 1.03983 -85.7417
rradius 34.7972
rwrist 9.94538
rhand -14.5422 -22.5625
rfingers 7.12502
rthumb 11.6063 -412.221
lclavicle 2.08724e-014 -2.46493e-014
lhumerus -22.4763 -12.8291 89.1641
lradius 50.9945
lwrist -14.9936
lhand -17.6683 21.1476
lfingers 7.12502
lthumb 8.59046 50.9528
rfemur -23.0796 3.87196 25.387
rtibia 18.5817
rfoot -1.45958 -11.3016
rtoes 19.1111
lfemur -7.81337 -1.68193 -14.081
ltibia 42.3957
lfoot 2.01083 -6.01017
ltoes -18.3959
469
root -17.6417 18.0312 0.652853 793.422 -85.8112 -786.606
lowerback -1.85754 -3.1245 3.23986
upperback -1.26416 -4.291 3.82843
thorax -0.200359 -2.18485 2.04685
lowerneck -13.3469 -10.4928 -13.0326
upperneck 12.8647 -13.1763 8.88134
head 7.60483 -6.27132 3.46486
rclavicle -2.08724e-015 -2.38542e-014
rhumerus -27.1728 1.05853 -85.6998
rradius 34.8607
rwrist 9.91556
rhand -14.4992 -22.6497
rfingers 7.12502
rthumb 11.6478 -412.306
lclavicle -2.08724e-015 -2.38542e-014
lhumerus -23.1556 -12.7475 89.509
lradius 50.7796
lwrist -15.2028
lhand -17.7647 21.1336
lfingers 7.12502
lthumb 8.4974 50.9426
rfemur -22.391 3.93606 25.8987
rtibia 18.5055
rfoot -1.65621 -11.0632
rtoes 19.5825
lfemur -8.63759 -1.47261 -13.5879
ltibia 43.8165
lfoot 2.75429 -5.90172
ltoes -18.2994
470
root -17.7994 18.0399 0.630777 794.866 -85.5419 -788.117
lowerback -1.87423 -3.0346 3.52085
upperback -1.23189 -4.18112 3.88711
thorax -0.174859 -2.13214 1.95125
lowerneck -13.3136 -10.5215 -13.0638
upperneck 12.8699 -13.216 8.88886
head 7.60801 -6.29207 3.46752
rclavicle 4.55217e-014 -4.77083e-015
rhumerus -27.3476 1.08623 -85.6586
rradius 34.9538
rwrist 9.8793
rhand -14.4548 -22.7565
rfingers 7.12502
rthumb 11.6905 -412.41
lclavicle 4.55217e-014 -4.77083e-015
lhumerus -23.8355 -12.6064 89.8319
lradius 50.5103
lwrist -15.3889
lhand -17.8564 21.1453
lfingers 7.12502
lthumb 8.40895 50.9579
rfemur -21.6856 3.99664 26.4092
rtibia 18.4025
rfoot -1.86919 -10.8308
rtoes 20.022
lfemur -9.48975 -1.25175 -13.1018
ltibia 45.2161
lfoot 3.42192 -5.77385
ltoes -18.1971
471
root -17.9565 18.0484 0.608919 796.311 -85.2771 -789.628
lowerback -1.89046 -2.93998 3.80009
upperback -1.19924 -4.06513 3.94056
thorax -0.14868 -2.07623 1.85141
lowerneck -13.2781 -10.5482 -13.092
upperneck 12.8793 -13.2543 8.89639
head 7.61187 -6.31215 3.46998
rclavicle 3.47873e-014 -2.54444e-014
rhumerus -27.5238 1.11981 -85.6182
rradius 35.0719
rwrist 9.8416
rhand -14.417 -22.8593
rfingers 7.12502
rthumb 11.727 -412.511
lclavicle 3.47873e-014 -2.54444e-014
lhumerus -24.517 -12.4053 90.1292
lradius 50.1928
lwrist -15.5529
lhand -17.9415 21.1722
lfingers 7.12502
lthumb 8.32678 50.988
rfemur -20.9682 4.05448 26.9153
rtibia 18.2766
rfoot -2.09222 -10.6042
rtoes 20.4262
lfemur -10.367 -1.01837 -12.6265
ltibia 46.5858
lfoot 4.00734 -5.62686
ltoes -18.0714
